<svg width="29" height="27" viewBox="0 0 29 27" fill="none" xmlns="http://www.w3.org/2000/svg">
<g clip-path="url(#clip0_3_775)">
<path d="M13.3911 0.0154562C5.95745 0.346229 0.0912836 6.13167 0.113834 13.0864C0.120701 15.2047 0.66791 17.2041 1.63322 18.9707L0.151127 25.6939C0.0709542 26.0575 0.421938 26.376 0.808533 26.2904L7.85804 24.7296C9.66917 25.5727 11.7035 26.0597 13.8564 26.0904C21.4543 26.1988 27.7896 20.5609 28.0264 13.4631C28.2802 5.85481 21.5609 -0.348155 13.3911 0.0154562ZM21.8026 20.2691C19.7381 22.1985 16.9932 23.261 14.0736 23.261C12.364 23.261 10.7273 22.9026 9.20873 22.1957L8.227 21.7386L3.90492 22.6956L4.81469 18.5684L4.33103 17.6832C3.5427 16.2404 3.14298 14.6802 3.14298 13.0461C3.14298 10.3175 4.27994 7.75238 6.34444 5.82298C8.39051 3.91087 11.1802 2.83105 14.0738 2.83105C16.9934 2.83111 19.7382 3.89364 21.8027 5.82291C23.8672 7.75225 25.0042 10.3174 25.0042 13.0459C25.0042 15.7501 23.8487 18.3571 21.8026 20.2691Z" fill="#FADBBD"/>
<path d="M20.8484 15.8753L18.1444 15.1497C17.7889 15.0543 17.4061 15.1485 17.147 15.3952L16.4858 16.0248C16.207 16.2903 15.7839 16.3756 15.4149 16.236C14.1357 15.7523 11.445 13.5165 10.7578 12.3982C10.5596 12.0756 10.5924 11.6723 10.8358 11.3779L11.4131 10.68C11.6392 10.4065 11.687 10.0392 11.5374 9.72312L10.3998 7.31857C10.1273 6.74265 9.33974 6.575 8.82525 6.98164C8.07057 7.57813 7.17514 8.48458 7.06629 9.48879C6.87437 11.2593 7.68687 13.4912 10.7594 16.1711C14.3089 19.2671 17.1514 19.6761 19.0021 19.2571C20.0518 19.0195 20.8907 18.067 21.4202 17.287C21.7811 16.7553 21.4961 16.0491 20.8484 15.8753Z" fill="#FADBBD"/>
</g>
<defs>
<clipPath id="clip0_3_775">
<rect width="28.1471" height="26.3042" fill="white"/>
</clipPath>
</defs>
</svg>
