<svg width="29" height="27" viewBox="0 0 29 27" fill="none" xmlns="http://www.w3.org/2000/svg">
<g clip-path="url(#clip0_3_779)">
<path d="M19.7619 0H8.38516C3.76156 0 0 3.51529 0 7.83617V18.4681C0 22.7889 3.76156 26.3042 8.38516 26.3042H19.7619C24.3855 26.3042 28.1471 22.7889 28.1471 18.4681V7.83617C28.147 3.51529 24.3854 0 19.7619 0ZM25.3155 18.4681C25.3155 21.3344 22.829 23.658 19.7619 23.658H8.38516C5.31804 23.658 2.83159 21.3344 2.83159 18.4681V7.83617C2.83159 4.96981 5.31804 2.6462 8.38516 2.6462H19.7619C22.829 2.6462 25.3155 4.96981 25.3155 7.83617V18.4681Z" fill="#FADBBD"/>
<path d="M14.0735 6.349C10.0594 6.349 6.7937 9.40091 6.7937 13.1522C6.7937 16.9034 10.0594 19.9554 14.0735 19.9554C18.0876 19.9554 21.3534 16.9035 21.3534 13.1522C21.3534 9.40086 18.0876 6.349 14.0735 6.349ZM14.0735 17.3092C11.6168 17.3092 9.6253 15.4481 9.6253 13.1522C9.6253 10.8563 11.6169 8.9952 14.0735 8.9952C16.5302 8.9952 18.5218 10.8563 18.5218 13.1522C18.5218 15.448 16.5302 17.3092 14.0735 17.3092Z" fill="#FADBBD"/>
<path d="M21.3674 8.03028C22.3308 8.03028 23.1118 7.30042 23.1118 6.40009C23.1118 5.49976 22.3308 4.7699 21.3674 4.7699C20.404 4.7699 19.623 5.49976 19.623 6.40009C19.623 7.30042 20.404 8.03028 21.3674 8.03028Z" fill="#FADBBD"/>
</g>
<defs>
<clipPath id="clip0_3_779">
<rect width="28.1471" height="26.3042" fill="white"/>
</clipPath>
</defs>
</svg>
