<svg width="29" height="27" viewBox="0 0 29 27" fill="none" xmlns="http://www.w3.org/2000/svg">
<g clip-path="url(#clip0_3_773)">
<path d="M24.3549 0H3.79385C1.69915 0 0.000976562 1.58692 0.000976562 3.54455V22.7596C0.000976562 24.7172 1.69908 26.3041 3.79385 26.3041H13.9345L13.9517 16.9044H11.3386C10.999 16.9044 10.7234 16.6478 10.7221 16.3305L10.7096 13.3006C10.7083 12.9815 10.9847 12.7221 11.3262 12.7221H13.9345V9.79449C13.9345 6.39698 16.1549 4.54701 19.398 4.54701H22.0593C22.3998 4.54701 22.6759 4.80497 22.6759 5.12323V7.67806C22.6759 7.99619 22.4 8.25409 22.0596 8.25429L20.4264 8.255C18.6627 8.255 18.3212 9.03823 18.3212 10.1877V12.7222H22.1967C22.566 12.7222 22.8525 13.0235 22.809 13.3663L22.4247 16.3962C22.3879 16.6861 22.1248 16.9046 21.8124 16.9046H18.3385L18.3212 26.3042H24.355C26.4497 26.3042 28.1478 24.7173 28.1478 22.7597V3.54455C28.1478 1.58692 26.4497 0 24.3549 0Z" fill="#FADBBD"/>
</g>
<defs>
<clipPath id="clip0_3_773">
<rect width="28.1471" height="26.3042" fill="white"/>
</clipPath>
</defs>
</svg>
