<svg width="50" height="43" viewBox="0 0 50 43" fill="none" xmlns="http://www.w3.org/2000/svg">
<g clip-path="url(#clip0_4042_22)">
<path d="M24.8706 0C11.1283 0 0 9.632 0 21.5C0 33.368 11.1283 43 24.8706 43C38.6379 43 49.7911 33.368 49.7911 21.5C49.7911 9.632 38.6379 0 24.8706 0ZM24.8955 38.7C13.8917 38.7 4.97911 31.003 4.97911 21.5C4.97911 11.997 13.8917 4.3 24.8955 4.3C35.8994 4.3 44.812 11.997 44.812 21.5C44.812 31.003 35.8994 38.7 24.8955 38.7Z" fill="#FADBBD"/>
<path d="M28.0075 14H24.8955V24.75L35.7873 30.3937L37.3433 28.19L28.0075 23.4062V14Z" fill="#FADBBD"/>
</g>
<defs>
<clipPath id="clip0_4042_22">
<rect width="49.7911" height="43" fill="white"/>
</clipPath>
</defs>
</svg>
