<svg width="50" height="43" viewBox="0 0 50 43" fill="none" xmlns="http://www.w3.org/2000/svg">
<path d="M39.7775 18.6094L33.692 13.3539C32.9174 12.685 32.6962 11.7533 33.0004 10.9172C34.0239 8.24167 34.5771 5.375 34.5771 2.38889C34.5771 1.075 35.8219 0 37.3433 0H47.0249C48.5463 0 49.7911 1.075 49.7911 2.38889C49.7911 24.8206 28.7405 43 2.76617 43C1.24478 43 0 41.925 0 40.6111V32.2739C0 30.96 1.24478 29.885 2.76617 29.885C6.19622 29.885 9.54329 29.4072 12.6414 28.5233C13.6096 28.2367 14.716 28.4517 15.4629 29.0967L21.5485 34.3522C29.3767 30.8883 35.7943 25.37 39.7775 18.6094Z" fill="#FADBBD"/>
</svg>
